<?xml version="1.0" encoding="UTF-8"?>
<svg id="_Слой_2" data-name="Слой 2" xmlns="http://www.w3.org/2000/svg" viewBox="0 0 80.0526 74.8199">
  <defs>
    <style>
      .cls-1, .cls-2, .cls-3, .cls-4 {
        fill: #fff;
      }

      .cls-2 {
        opacity: .8;
      }

      .cls-2, .cls-3, .cls-4 {
        isolation: isolate;
      }

      .cls-3 {
        opacity: .6;
      }

      .cls-4 {
        opacity: .4;
      }
    </style>
  </defs>
  <g id="_Слой_1-2" data-name="Слой 1">
    <path class="cls-1" d="m70.2712,9.3226c.6478,1.3693,1.0364,2.9159,1.0364,4.6075v46.9767c0,1.6755-.3887,3.222-1.0364,4.5914,5.004.8377,9.7814-3.1254,9.7814-8.5867V17.9092c0-5.4935-4.7935-9.4243-9.7814-8.5866Z"/>
    <path class="cls-2" d="m70.2186,9.323c-2.1377-4.4786-7.2551-7.0078-12.2429-5.3968,1.7328,1.9976,2.8178,4.6397,2.8178,7.6361v51.697c0,2.9803-1.085,5.6385-2.8016,7.6361,5.004,1.611,10.1052-.9344,12.2429-5.3968.6477-1.3694,1.0364-2.932,1.0364-4.5914V13.9305c0-1.6754-.3887-3.222-1.0364-4.6074h-.0162Z"/>
    <path class="cls-4" d="m22.8664,58.3095c-4.0972-1.466-6.8502-5.4452-6.8502-9.9076v-20.7658c0-4.3497,2.6073-8.2322,6.5587-9.7949L57.3603,4.1155c.2105-.0805.4049-.1289.6154-.1933-2.9636-3.4314-7.8219-4.978-12.4696-3.1414L7.2065,15.8919c-4.3401,1.7077-7.2065,5.9929-7.2065,10.7776v22.844c0,4.9135,3.0283,9.2793,7.5304,10.9064l38.2834,13.7418c4.5668,1.6433,9.2631.0806,12.1457-3.2542-.1133-.0322-.2105-.0483-.3239-.0967l-34.8016-12.4852.0324-.0161Z"/>
    <path class="cls-3" d="m60.7891,62.2345l-20.7935-7.4741c-3.3847-1.2244-5.6681-4.5269-5.6681-8.2161v-17.2377c0-3.6086,2.1539-6.8306,5.4251-8.1355l21.0365-8.345v-1.2727c0-2.9965-1.085-5.6224-2.8178-7.6361-.2106.0644-.4049.1128-.6154.1933l-34.8016,13.7418c-3.9514,1.5627-6.5587,5.4452-6.5587,9.7949v20.7658c0,4.4624,2.753,8.4255,6.8502,9.9076l34.8016,12.4852c.1133.0323.2105.0645.3239.0967,1.7328-2.0138,2.8016-4.6558,2.8016-7.6361l.0162-.9707v-.0613Z"/>
    <path class="cls-1" d="m34.3276,29.1697v17.2376c0,3.7053,2.2672,7.0079,5.668,8.2161l20.7935,7.4912V12.7053l-21.0364,8.345c-3.2713,1.2888-5.4251,4.5269-5.4251,8.1356v-.0161Z"/>
  </g>
</svg>